<svg width="14" height="14" viewBox="0 0 14 14" fill="none" xmlns="http://www.w3.org/2000/svg">
<path d="M4.33333 1V3C4.33333 3.35362 4.19286 3.69276 3.94281 3.94281C3.69276 4.19286 3.35362 4.33333 3 4.33333H1M13 4.33333H11C10.6464 4.33333 10.3072 4.19286 10.0572 3.94281C9.80714 3.69276 9.66667 3.35362 9.66667 3V1M9.66667 13V11C9.66667 10.6464 9.80714 10.3072 10.0572 10.0572C10.3072 9.80714 10.6464 9.66667 11 9.66667H13M1 9.66667H3C3.35362 9.66667 3.69276 9.80714 3.94281 10.0572C4.19286 10.3072 4.33333 10.6464 4.33333 11V13" stroke="#003A68" stroke-width="1.33333" stroke-linecap="round" stroke-linejoin="round"/>
</svg> 