<svg width="273" height="282" viewBox="0 0 273 282" fill="none" xmlns="http://www.w3.org/2000/svg">
<path d="M202.611 39.159C222.156 51.3463 238.992 71.0076 242.836 92.951C246.732 114.887 237.64 139.16 225.619 163.255C213.601 187.404 198.66 211.516 174.461 228.08C150.262 244.708 116.806 253.862 91.1972 243.571C65.6454 233.334 47.9429 203.599 38.2508 175.001C28.6155 146.402 27.0452 118.942 31.9718 92.7732C36.8439 66.6735 48.1584 41.9221 66.9978 29.6257C85.8372 17.3294 112.204 17.4929 136.51 19.9313C160.764 22.3152 183.068 27.0262 202.611 39.159Z" fill="#F9F9FB"/>
<path d="M214.01 263.91C212.397 261.092 190.846 214.383 190.846 210.706C190.846 209.45 197.679 171.084 200.704 170.639C203.728 170.193 210.99 167.144 213.318 166.305C213.588 169.411 229.628 263.91 229.628 263.91H214.01Z" fill="#A3A3A9"/>
<path d="M164.12 263.91C164.12 257.787 164.338 167.144 164.338 167.144C164.338 167.144 203.26 168.627 206.541 168.786C206.541 187.656 179.381 249.246 179.381 263.91H164.12Z" fill="#A3A3A9"/>
<path d="M186.211 89.8795C185.048 88.0478 179.641 78.9789 179.162 77.4102C178.684 75.8415 175.373 48.282 175.373 48.282L166.029 48.7559C166.029 48.7559 165.013 78.2254 166.029 80.46C167.045 82.6946 174.492 97.1213 174.492 97.1213L180.247 100.782L186.211 89.8795Z" fill="white"/>
<path d="M164.437 74.7162C164.498 77.1001 164.622 78.8016 164.837 79.2755C165.853 81.5101 173.3 95.9368 173.3 95.9368L179.056 99.598L185.027 88.6974C183.864 86.8656 178.456 77.7968 177.978 76.2281C177.499 74.6594 174.188 47.0999 174.188 47.0999L164.844 47.5738C164.844 47.5738 164.463 58.6497 164.401 67.7351" stroke="#003A68" stroke-width="0.756506" stroke-linecap="round" stroke-linejoin="round"/>
<path d="M228.726 22.8391L235.659 22.1639C236.01 22.1296 236.365 22.165 236.703 22.268C237.041 22.371 237.356 22.5396 237.629 22.7642C237.902 22.9888 238.128 23.2649 238.294 23.5769C238.46 23.8888 238.563 24.2305 238.597 24.5824L240.166 40.703C240.235 41.4136 240.019 42.1226 239.566 42.6739C239.113 43.2253 238.459 43.5739 237.749 43.6431L230.815 44.3183L228.726 22.8391Z" fill="#DA4167"/>
<path d="M99.5823 35.4148L82.0361 47.9646L101.674 56.8936L230.816 44.3082L228.725 22.8293L99.5823 35.4148Z" fill="#DA4167"/>
<path d="M194.397 87.5007C219.196 87.5007 213.507 156.298 213.32 166.305C209.445 170.994 169.246 169.859 164.12 166.679C162.836 155.736 167.555 87.5007 194.397 87.5007Z" fill="#005395"/>
<path d="M210.986 113.24C214.205 133.707 212.243 159.312 212.134 165.12C209.936 167.779 196.062 168.568 183.522 168.172" stroke="#003A68" stroke-width="0.756506" stroke-linecap="round" stroke-linejoin="round"/>
<path d="M163.676 145.046C166.151 121.164 174.029 86.3157 193.212 86.3157C199.955 86.3157 204.443 91.4034 207.401 99.0125" stroke="#003A68" stroke-width="0.756506" stroke-linecap="round" stroke-linejoin="round"/>
<path d="M173.784 167.594C168.483 167.106 164.36 166.381 162.936 165.494C162.752 163.926 162.699 161.179 162.801 157.625" stroke="#003A68" stroke-width="0.756506" stroke-linecap="round" stroke-linejoin="round"/>
<path d="M197.768 197.831C194.07 208.528 190.172 218.319 189.018 221.734C186.796 228.31 178.196 258.279 178.196 262.73" stroke="#003A68" stroke-width="0.756506" stroke-linecap="round" stroke-linejoin="round"/>
<path d="M205.356 167.369C205.356 171.786 203.833 178.452 201.706 185.648" stroke="#003A68" stroke-width="0.756506" stroke-linecap="round" stroke-linejoin="round"/>
<path d="M162.936 243.17V262.725" stroke="#003A68" stroke-width="0.756506" stroke-linecap="round" stroke-linejoin="round"/>
<path d="M162.936 165.494V228.509" stroke="#003A68" stroke-width="0.756506" stroke-linecap="round" stroke-linejoin="round"/>
<path d="M212.135 165.12C212.135 170.793 226.346 254.047 228.435 262.725" stroke="#003A68" stroke-width="0.756506" stroke-linecap="round" stroke-linejoin="round"/>
<path d="M203.812 243.981C198.544 232.307 192.777 218.919 191.495 215.047" stroke="#003A68" stroke-width="0.756506" stroke-linecap="round" stroke-linejoin="round"/>
<path d="M212.826 262.725C212.092 261.606 210.425 258.244 208.326 253.772" stroke="#003A68" stroke-width="0.756506" stroke-linecap="round" stroke-linejoin="round"/>
<path d="M61.3253 123.081C63.6197 123.081 65.4798 121.221 65.4798 118.925C65.4798 116.629 63.6197 114.769 61.3253 114.769C59.0309 114.769 57.1709 116.629 57.1709 118.925C57.1709 121.221 59.0309 123.081 61.3253 123.081Z" fill="#DA4167"/>
<path d="M141.306 129.804C143.472 129.804 145.228 128.047 145.228 125.88C145.228 123.713 143.472 121.956 141.306 121.956C139.14 121.956 137.384 123.713 137.384 125.88C137.384 128.047 139.14 129.804 141.306 129.804Z" fill="#DA4167"/>
<path d="M105.848 217.845C108.014 217.845 109.77 216.088 109.77 213.921C109.77 211.754 108.014 209.997 105.848 209.997C103.682 209.997 101.926 211.754 101.926 213.921C101.926 216.088 103.682 217.845 105.848 217.845Z" fill="white"/>
<path d="M73.3312 54.0599L52.3721 72.0454L90.7374 116.797L111.697 98.8115L73.3312 54.0599Z" fill="white"/>
<path d="M202.988 78.9745C202.661 81.3916 202.04 90.0552 202.299 93.0647C200.951 94.3609 194.52 94.6216 191.877 92.2875C192.396 89.7969 193.589 87.6168 192.914 82.4296C192.239 77.2423 202.988 78.9745 202.988 78.9745Z" fill="white"/>
<path d="M191.481 89.1948C191.976 87.3512 192.445 85.183 191.955 81.4815C191.282 76.2919 202.031 78.0265 202.031 78.0265C201.704 80.4436 201.084 89.1072 201.342 92.1167C200.295 93.1238 196.176 93.5053 193.151 92.529" stroke="#003A68" stroke-width="0.756506" stroke-linecap="round" stroke-linejoin="round"/>
<path d="M194.745 83.3347C201.311 83.3347 206.633 76.3494 206.633 67.7327C206.633 59.1159 201.311 52.1306 194.745 52.1306C188.18 52.1306 182.857 59.1159 182.857 67.7327C182.857 76.3494 188.18 83.3347 194.745 83.3347Z" fill="white"/>
<path d="M182.187 70.1451C182.002 69.0347 181.909 67.9107 181.91 66.7849C181.91 58.1687 187.232 51.1829 193.798 51.1829C200.363 51.1829 205.686 58.1687 205.686 66.7849C205.709 69.8077 205.016 72.793 203.663 75.4959" stroke="#003A68" stroke-width="0.756506" stroke-linecap="round" stroke-linejoin="round"/>
<path d="M197.735 81.5125C196.501 82.0862 195.158 82.3846 193.798 82.3869C189.478 82.3869 185.693 79.3608 183.613 74.8347" stroke="#003A68" stroke-width="0.756506" stroke-linecap="round" stroke-linejoin="round"/>
<path d="M188.509 69.1878C188.79 69.1878 189.018 68.5725 189.018 67.8134C189.018 67.0543 188.79 66.439 188.509 66.439C188.228 66.439 188 67.0543 188 67.8134C188 68.5725 188.228 69.1878 188.509 69.1878Z" fill="#003A68"/>
<path d="M186.285 68.1497C186.285 69.261 185.285 71.1331 184.316 72.1497" stroke="#003A68" stroke-width="0.756506" stroke-linecap="round" stroke-linejoin="round"/>
<path d="M187.349 77.5099C187.867 77.5099 189.698 76.8535 191.008 74.9412" stroke="#003A68" stroke-width="0.756506" stroke-linecap="round" stroke-linejoin="round"/>
<path d="M200.163 71.7943C200.677 72.491 201.195 77.5242 202.294 77.8536C203.393 78.183 208.055 69.3227 208.055 65.7682C208.055 59.3416 204.265 44.9434 198.694 44.9434C196.674 44.9434 196.491 48.0666 196.491 49.2775C195.831 47.6187 192.782 44.0642 188.929 44.0642C182.394 44.0642 182.498 50.2254 183.642 55.0833C182.505 54.4577 182.458 54.2752 181.072 54.2752C179.826 54.2752 179.163 55.9079 179.163 57.6165C179.163 61.7302 181.373 63.1995 183.095 63.8985C184.817 64.5976 189.772 64.927 193.043 64.8464C193.443 65.78 196.453 71.8678 200.163 71.7943Z" fill="#ECC953"/>
<path d="M184.807 63.3225C187.146 63.595 189.501 63.7106 191.855 63.6685C192.258 64.5856 195.269 70.6828 198.978 70.6093C199.492 71.306 200.01 76.3392 201.109 76.6686C201.396 76.7563 201.929 76.2136 202.557 75.3013" stroke="#003A68" stroke-width="0.756506" stroke-linecap="round" stroke-linejoin="round"/>
<path d="M183.392 44.4529C181.376 46.5856 181.67 50.5525 182.456 53.8961C181.32 53.2705 181.272 53.088 179.887 53.088C178.641 53.088 177.978 54.7207 177.978 56.4293C177.978 59.344 179.088 60.9317 180.346 61.8583" stroke="#003A68" stroke-width="0.756506" stroke-linecap="round" stroke-linejoin="round"/>
<path d="M200.674 45.3579C199.703 44.3555 198.644 43.7607 197.509 43.7607C195.489 43.7607 195.307 46.8816 195.307 48.0949C194.646 46.4361 191.597 42.8816 187.744 42.8816C187.571 42.8816 187.403 42.8816 187.239 42.8816" stroke="#003A68" stroke-width="0.756506" stroke-linecap="round" stroke-linejoin="round"/>
<path d="M205.212 70.3511C206.16 68.1971 206.87 65.9838 206.87 64.5857C206.87 60.6804 205.475 53.8368 203.128 49.0642" stroke="#003A68" stroke-width="0.756506" stroke-linecap="round" stroke-linejoin="round"/>
<path d="M198.306 73.4863C200.377 73.4863 202.055 71.8069 202.055 69.7351C202.055 67.6634 200.377 65.9839 198.306 65.9839C196.235 65.9839 194.557 67.6634 194.557 69.7351C194.557 71.8069 196.235 73.4863 198.306 73.4863Z" fill="white"/>
<path d="M195.484 65.5431C195.983 65.2545 196.541 65.0846 197.116 65.0465C197.69 65.0085 198.266 65.1032 198.798 65.3235C199.33 65.5438 199.804 65.8837 200.184 66.3168C200.564 66.75 200.839 67.2648 200.988 67.8213C201.137 68.3779 201.155 68.9613 201.043 69.5263C200.93 70.0913 200.689 70.6228 200.338 71.0795C199.987 71.5363 199.536 71.9061 199.019 72.1604C198.502 72.4146 197.934 72.5464 197.358 72.5455" stroke="#003A68" stroke-width="0.756506" stroke-linecap="round" stroke-linejoin="round"/>
<path d="M187.469 98.6926C184.864 97.5077 166.122 90.7043 164.494 89.0716C162.867 87.4389 150.702 64.0453 150.312 62.9363C150.66 62.5524 151.297 60.7325 151.259 58.6709C151.221 56.6092 149.897 56.0429 149.795 49.6021C149.762 47.3959 146.527 49.7229 146.567 54.2964C142.73 54.0026 137.86 44.6352 134.899 48.7608C145.084 69.3345 156.313 101.02 157.258 101.965C158.204 102.911 182.552 115.209 183.097 114.873C183.642 114.536 188.59 100.039 187.469 98.6926Z" fill="white"/>
<path d="M210.857 117.885C212.773 110.38 201.257 98.3041 188.808 97.1216C186.757 98.2306 180.707 112.067 181.42 116.491C186.11 121.496 207.82 129.783 210.857 117.885Z" fill="#005395"/>
<path d="M186.809 96.7471C184.312 100.003 179.601 111.375 180.236 115.306C181.108 116.238 182.571 117.283 184.393 118.29" stroke="#003A68" stroke-width="0.756506" stroke-linecap="round" stroke-linejoin="round"/>
<path d="M187.623 95.9365C187.302 96.1519 187.026 96.4271 186.809 96.747" stroke="#003A68" stroke-width="0.756506" stroke-linecap="round" stroke-linejoin="round"/>
<path d="M193.588 121.901C200.637 123.686 207.998 123.264 209.673 116.7C211.186 110.776 204.329 102.008 195.253 97.9792" stroke="#003A68" stroke-width="0.756506" stroke-linecap="round" stroke-linejoin="round"/>
<path d="M135.361 50.5003C134.821 49.5082 134.268 48.5318 133.703 47.5713C132.921 46.4505 136.443 44.2964 142.052 51.6709" stroke="#003A68" stroke-width="0.756506" stroke-linecap="round" stroke-linejoin="round"/>
<path d="M160.923 103.574C158.519 102.254 156.683 101.204 156.072 100.776C153.962 99.2779 147.709 74.8061 137.382 54.3296" stroke="#003A68" stroke-width="0.756506" stroke-linecap="round" stroke-linejoin="round"/>
<path d="M180.216 113.683C179.505 113.411 173.16 110.129 167.125 106.918" stroke="#003A68" stroke-width="0.756506" stroke-linecap="round" stroke-linejoin="round"/>
<path d="M152.635 68.7019C150.704 64.9886 149.257 62.1213 149.127 61.7516C149.475 61.3677 150.112 59.5478 150.074 57.4862C150.036 55.4245 148.712 54.8582 148.611 48.4174C148.577 46.2112 145.342 48.5382 145.382 53.1117" stroke="#003A68" stroke-width="0.756506" stroke-linecap="round" stroke-linejoin="round"/>
<path d="M186.284 97.5078C183.679 96.3229 164.937 89.5195 163.309 87.8868C162.637 87.2138 160.178 82.8441 157.492 77.863" stroke="#003A68" stroke-width="0.756506" stroke-linecap="round" stroke-linejoin="round"/>
<path d="M134.897 142.809L83.7266 155.973L120.704 193.729L134.897 142.809Z" stroke="#DA4167" stroke-width="0.756506" stroke-linecap="round" stroke-linejoin="round"/>
</svg>
